<mxfile host="Electron" agent="Mozilla/5.0 (Windows NT 10.0; Win64; x64) AppleWebKit/537.36 (KHTML, like Gecko) draw.io/28.0.6 Chrome/138.0.7204.100 Electron/37.2.3 Safari/537.36" version="28.0.6">
  <diagram name="Page-1" id="ZuU3tDqSBCfgnGdc7y5j">
    <mxGraphModel dx="3146" dy="736" grid="1" gridSize="10" guides="1" tooltips="1" connect="1" arrows="1" fold="1" page="1" pageScale="1" pageWidth="1920" pageHeight="1200" math="0" shadow="0">
      <root>
        <mxCell id="0" />
        <mxCell id="1" parent="0" />
        <mxCell id="erSds1CLaswU4poHBw7s-52" value="" style="rounded=1;whiteSpace=wrap;html=1;fillColor=none;strokeColor=#6c8ebf;" parent="1" vertex="1">
          <mxGeometry x="-130" y="100" width="680" height="430" as="geometry" />
        </mxCell>
        <mxCell id="erSds1CLaswU4poHBw7s-55" value="" style="rounded=1;whiteSpace=wrap;html=1;fillColor=none;strokeColor=#d6b656;" parent="1" vertex="1">
          <mxGeometry x="595" y="100" width="465" height="430" as="geometry" />
        </mxCell>
        <mxCell id="erSds1CLaswU4poHBw7s-6" value="" style="group" parent="1" vertex="1" connectable="0">
          <mxGeometry x="280" y="310" width="230" height="100" as="geometry" />
        </mxCell>
        <mxCell id="erSds1CLaswU4poHBw7s-1" value="crm_cust_info" style="swimlane;fontStyle=0;childLayout=stackLayout;horizontal=1;startSize=30;horizontalStack=0;resizeParent=1;resizeParentMax=0;resizeLast=0;collapsible=1;marginBottom=0;whiteSpace=wrap;html=1;fillColor=#dae8fc;strokeColor=#6c8ebf;fontSize=18;rounded=1;" parent="erSds1CLaswU4poHBw7s-6" vertex="1">
          <mxGeometry y="30" width="230" height="90" as="geometry" />
        </mxCell>
        <mxCell id="erSds1CLaswU4poHBw7s-2" value="cst_id" style="text;strokeColor=none;fillColor=none;align=left;verticalAlign=middle;spacingLeft=4;spacingRight=4;overflow=hidden;points=[[0,0.5],[1,0.5]];portConstraint=eastwest;rotatable=0;whiteSpace=wrap;html=1;fontSize=18;" parent="erSds1CLaswU4poHBw7s-1" vertex="1">
          <mxGeometry y="30" width="230" height="30" as="geometry" />
        </mxCell>
        <mxCell id="erSds1CLaswU4poHBw7s-29" value="cst_key" style="text;strokeColor=none;fillColor=none;align=left;verticalAlign=middle;spacingLeft=4;spacingRight=4;overflow=hidden;points=[[0,0.5],[1,0.5]];portConstraint=eastwest;rotatable=0;whiteSpace=wrap;html=1;fontSize=18;" parent="erSds1CLaswU4poHBw7s-1" vertex="1">
          <mxGeometry y="60" width="230" height="30" as="geometry" />
        </mxCell>
        <mxCell id="erSds1CLaswU4poHBw7s-5" value="Customer Information" style="text;html=1;align=center;verticalAlign=middle;whiteSpace=wrap;rounded=0;fontSize=18;" parent="erSds1CLaswU4poHBw7s-6" vertex="1">
          <mxGeometry x="25" width="180" height="30" as="geometry" />
        </mxCell>
        <mxCell id="erSds1CLaswU4poHBw7s-7" value="&lt;font style=&quot;font-size: 36px;&quot;&gt;Integration Model&lt;/font&gt;" style="text;html=1;align=center;verticalAlign=middle;whiteSpace=wrap;rounded=0;" parent="1" vertex="1">
          <mxGeometry x="410" y="20" width="300" height="40" as="geometry" />
        </mxCell>
        <mxCell id="erSds1CLaswU4poHBw7s-13" value="" style="group" parent="1" vertex="1" connectable="0">
          <mxGeometry x="240" y="120" width="330" height="80" as="geometry" />
        </mxCell>
        <mxCell id="erSds1CLaswU4poHBw7s-8" value="" style="group" parent="erSds1CLaswU4poHBw7s-13" vertex="1" connectable="0">
          <mxGeometry y="7.2727272727272725" width="330" height="72.72727272727273" as="geometry" />
        </mxCell>
        <mxCell id="erSds1CLaswU4poHBw7s-9" value="crm_prd_info" style="swimlane;fontStyle=0;childLayout=stackLayout;horizontal=1;startSize=30;horizontalStack=0;resizeParent=1;resizeParentMax=0;resizeLast=0;collapsible=1;marginBottom=0;whiteSpace=wrap;html=1;fillColor=#dae8fc;strokeColor=#6c8ebf;fontSize=18;rounded=1;" parent="erSds1CLaswU4poHBw7s-8" vertex="1">
          <mxGeometry x="40" y="23.638181818181817" width="230" height="59.09" as="geometry" />
        </mxCell>
        <mxCell id="erSds1CLaswU4poHBw7s-10" value="prd_key" style="text;strokeColor=none;fillColor=none;align=left;verticalAlign=middle;spacingLeft=4;spacingRight=4;overflow=hidden;points=[[0,0.5],[1,0.5]];portConstraint=eastwest;rotatable=0;whiteSpace=wrap;html=1;fontSize=18;" parent="erSds1CLaswU4poHBw7s-9" vertex="1">
          <mxGeometry y="30" width="230" height="29.09" as="geometry" />
        </mxCell>
        <mxCell id="erSds1CLaswU4poHBw7s-11" value="Current &amp;amp; History Product Information" style="text;html=1;align=center;verticalAlign=middle;whiteSpace=wrap;rounded=0;fontSize=18;" parent="erSds1CLaswU4poHBw7s-13" vertex="1">
          <mxGeometry x="35.86956521739132" width="258.26086956521743" height="21.818181818181817" as="geometry" />
        </mxCell>
        <mxCell id="erSds1CLaswU4poHBw7s-14" value="" style="group" parent="1" vertex="1" connectable="0">
          <mxGeometry x="-110" y="210" width="330" height="117.27272727272727" as="geometry" />
        </mxCell>
        <mxCell id="erSds1CLaswU4poHBw7s-15" value="" style="group" parent="erSds1CLaswU4poHBw7s-14" vertex="1" connectable="0">
          <mxGeometry y="7.2727272727272725" width="330" height="110" as="geometry" />
        </mxCell>
        <mxCell id="erSds1CLaswU4poHBw7s-16" value="crm_sales_details" style="swimlane;fontStyle=0;childLayout=stackLayout;horizontal=1;startSize=30;horizontalStack=0;resizeParent=1;resizeParentMax=0;resizeLast=0;collapsible=1;marginBottom=0;whiteSpace=wrap;html=1;fillColor=#dae8fc;strokeColor=#6c8ebf;fontSize=18;rounded=1;" parent="erSds1CLaswU4poHBw7s-15" vertex="1">
          <mxGeometry x="25" y="21.82" width="280" height="88.18181818181819" as="geometry" />
        </mxCell>
        <mxCell id="erSds1CLaswU4poHBw7s-17" value="prd_key" style="text;strokeColor=none;fillColor=none;align=left;verticalAlign=middle;spacingLeft=4;spacingRight=4;overflow=hidden;points=[[0,0.5],[1,0.5]];portConstraint=eastwest;rotatable=0;whiteSpace=wrap;html=1;fontSize=18;" parent="erSds1CLaswU4poHBw7s-16" vertex="1">
          <mxGeometry y="30" width="280" height="29.09090909090909" as="geometry" />
        </mxCell>
        <mxCell id="erSds1CLaswU4poHBw7s-19" value="cst_id" style="text;strokeColor=none;fillColor=none;align=left;verticalAlign=middle;spacingLeft=4;spacingRight=4;overflow=hidden;points=[[0,0.5],[1,0.5]];portConstraint=eastwest;rotatable=0;whiteSpace=wrap;html=1;fontSize=18;" parent="erSds1CLaswU4poHBw7s-16" vertex="1">
          <mxGeometry y="59.09090909090909" width="280" height="29.09090909090909" as="geometry" />
        </mxCell>
        <mxCell id="erSds1CLaswU4poHBw7s-18" value="Transactional Records about Sales &amp;amp; Orders" style="text;html=1;align=center;verticalAlign=middle;whiteSpace=wrap;rounded=0;fontSize=18;" parent="erSds1CLaswU4poHBw7s-14" vertex="1">
          <mxGeometry x="35.86956521739132" width="258.26086956521743" height="21.818181818181817" as="geometry" />
        </mxCell>
        <mxCell id="erSds1CLaswU4poHBw7s-21" style="edgeStyle=orthogonalEdgeStyle;rounded=0;orthogonalLoop=1;jettySize=auto;html=1;entryX=0;entryY=0.5;entryDx=0;entryDy=0;" parent="1" source="erSds1CLaswU4poHBw7s-17" target="erSds1CLaswU4poHBw7s-10" edge="1">
          <mxGeometry relative="1" as="geometry" />
        </mxCell>
        <mxCell id="erSds1CLaswU4poHBw7s-22" style="edgeStyle=orthogonalEdgeStyle;rounded=0;orthogonalLoop=1;jettySize=auto;html=1;entryX=0;entryY=0.5;entryDx=0;entryDy=0;" parent="1" source="erSds1CLaswU4poHBw7s-19" target="erSds1CLaswU4poHBw7s-2" edge="1">
          <mxGeometry relative="1" as="geometry" />
        </mxCell>
        <mxCell id="erSds1CLaswU4poHBw7s-23" value="" style="group" parent="1" vertex="1" connectable="0">
          <mxGeometry x="680" y="270" width="330" height="90.00090909090909" as="geometry" />
        </mxCell>
        <mxCell id="erSds1CLaswU4poHBw7s-24" value="" style="group" parent="erSds1CLaswU4poHBw7s-23" vertex="1" connectable="0">
          <mxGeometry y="7.2727272727272725" width="330" height="82.72818181818182" as="geometry" />
        </mxCell>
        <mxCell id="erSds1CLaswU4poHBw7s-25" value="erp_cust_az12" style="swimlane;fontStyle=0;childLayout=stackLayout;horizontal=1;startSize=30;horizontalStack=0;resizeParent=1;resizeParentMax=0;resizeLast=0;collapsible=1;marginBottom=0;whiteSpace=wrap;html=1;fillColor=#fff2cc;strokeColor=#d6b656;fontSize=18;rounded=1;" parent="erSds1CLaswU4poHBw7s-24" vertex="1">
          <mxGeometry x="40" y="23.638181818181817" width="230" height="59.09" as="geometry">
            <mxRectangle x="40" y="23.638181818181817" width="160" height="40" as="alternateBounds" />
          </mxGeometry>
        </mxCell>
        <mxCell id="erSds1CLaswU4poHBw7s-26" value="cid" style="text;strokeColor=none;fillColor=none;align=left;verticalAlign=middle;spacingLeft=4;spacingRight=4;overflow=hidden;points=[[0,0.5],[1,0.5]];portConstraint=eastwest;rotatable=0;whiteSpace=wrap;html=1;fontSize=18;" parent="erSds1CLaswU4poHBw7s-25" vertex="1">
          <mxGeometry y="30" width="230" height="29.09" as="geometry" />
        </mxCell>
        <mxCell id="erSds1CLaswU4poHBw7s-27" value="Extra Customer Information (Birthday)" style="text;html=1;align=center;verticalAlign=middle;whiteSpace=wrap;rounded=0;fontSize=18;" parent="erSds1CLaswU4poHBw7s-23" vertex="1">
          <mxGeometry width="330" height="21.82" as="geometry" />
        </mxCell>
        <mxCell id="erSds1CLaswU4poHBw7s-31" value="" style="group" parent="1" vertex="1" connectable="0">
          <mxGeometry x="680" y="400" width="330" height="90.00090909090909" as="geometry" />
        </mxCell>
        <mxCell id="erSds1CLaswU4poHBw7s-32" value="" style="group" parent="erSds1CLaswU4poHBw7s-31" vertex="1" connectable="0">
          <mxGeometry y="7.2727272727272725" width="330" height="82.72818181818182" as="geometry" />
        </mxCell>
        <mxCell id="erSds1CLaswU4poHBw7s-33" value="erp_loc_a101" style="swimlane;fontStyle=0;childLayout=stackLayout;horizontal=1;startSize=30;horizontalStack=0;resizeParent=1;resizeParentMax=0;resizeLast=0;collapsible=1;marginBottom=0;whiteSpace=wrap;html=1;fillColor=#fff2cc;strokeColor=#d6b656;fontSize=18;rounded=1;" parent="erSds1CLaswU4poHBw7s-32" vertex="1">
          <mxGeometry x="40" y="23.638181818181817" width="230" height="59.09" as="geometry">
            <mxRectangle x="40" y="23.638181818181817" width="160" height="40" as="alternateBounds" />
          </mxGeometry>
        </mxCell>
        <mxCell id="erSds1CLaswU4poHBw7s-34" value="cid" style="text;strokeColor=none;fillColor=none;align=left;verticalAlign=middle;spacingLeft=4;spacingRight=4;overflow=hidden;points=[[0,0.5],[1,0.5]];portConstraint=eastwest;rotatable=0;whiteSpace=wrap;html=1;fontSize=18;" parent="erSds1CLaswU4poHBw7s-33" vertex="1">
          <mxGeometry y="30" width="230" height="29.09" as="geometry" />
        </mxCell>
        <mxCell id="erSds1CLaswU4poHBw7s-35" value="Location of Customers (Country)" style="text;html=1;align=center;verticalAlign=middle;whiteSpace=wrap;rounded=0;fontSize=18;" parent="erSds1CLaswU4poHBw7s-31" vertex="1">
          <mxGeometry width="330" height="21.82" as="geometry" />
        </mxCell>
        <mxCell id="erSds1CLaswU4poHBw7s-44" value="" style="group" parent="1" vertex="1" connectable="0">
          <mxGeometry x="680" y="130" width="330" height="90.00090909090909" as="geometry" />
        </mxCell>
        <mxCell id="erSds1CLaswU4poHBw7s-45" value="" style="group" parent="erSds1CLaswU4poHBw7s-44" vertex="1" connectable="0">
          <mxGeometry y="7.2727272727272725" width="330" height="82.72818181818182" as="geometry" />
        </mxCell>
        <mxCell id="erSds1CLaswU4poHBw7s-46" value="erp_px_cat_g1v2" style="swimlane;fontStyle=0;childLayout=stackLayout;horizontal=1;startSize=30;horizontalStack=0;resizeParent=1;resizeParentMax=0;resizeLast=0;collapsible=1;marginBottom=0;whiteSpace=wrap;html=1;fillColor=#fff2cc;strokeColor=#d6b656;fontSize=18;rounded=1;" parent="erSds1CLaswU4poHBw7s-45" vertex="1">
          <mxGeometry x="40" y="23.638181818181817" width="230" height="59.09" as="geometry">
            <mxRectangle x="40" y="23.638181818181817" width="160" height="40" as="alternateBounds" />
          </mxGeometry>
        </mxCell>
        <mxCell id="erSds1CLaswU4poHBw7s-47" value="id" style="text;strokeColor=none;fillColor=none;align=left;verticalAlign=middle;spacingLeft=4;spacingRight=4;overflow=hidden;points=[[0,0.5],[1,0.5]];portConstraint=eastwest;rotatable=0;whiteSpace=wrap;html=1;fontSize=18;" parent="erSds1CLaswU4poHBw7s-46" vertex="1">
          <mxGeometry y="30" width="230" height="29.09" as="geometry" />
        </mxCell>
        <mxCell id="erSds1CLaswU4poHBw7s-48" value="Product Category &amp;amp; Subcategory" style="text;html=1;align=center;verticalAlign=middle;whiteSpace=wrap;rounded=0;fontSize=18;" parent="erSds1CLaswU4poHBw7s-44" vertex="1">
          <mxGeometry width="330" height="21.82" as="geometry" />
        </mxCell>
        <mxCell id="erSds1CLaswU4poHBw7s-54" value="&lt;font style=&quot;font-size: 23px;&quot;&gt;&lt;b&gt;CRM&lt;/b&gt;&lt;/font&gt;" style="rounded=1;whiteSpace=wrap;html=1;fillColor=#dae8fc;strokeColor=#6c8ebf;" parent="1" vertex="1">
          <mxGeometry x="150" y="70" width="120" height="60" as="geometry" />
        </mxCell>
        <mxCell id="erSds1CLaswU4poHBw7s-56" value="&lt;font style=&quot;font-size: 23px;&quot;&gt;&lt;b&gt;ERP&lt;/b&gt;&lt;/font&gt;" style="rounded=1;whiteSpace=wrap;html=1;fillColor=#fff2cc;strokeColor=#d6b656;" parent="1" vertex="1">
          <mxGeometry x="785" y="60" width="120" height="60" as="geometry" />
        </mxCell>
        <mxCell id="erSds1CLaswU4poHBw7s-59" style="edgeStyle=orthogonalEdgeStyle;rounded=0;orthogonalLoop=1;jettySize=auto;html=1;entryX=1;entryY=0.5;entryDx=0;entryDy=0;" parent="1" source="erSds1CLaswU4poHBw7s-46" target="erSds1CLaswU4poHBw7s-10" edge="1">
          <mxGeometry relative="1" as="geometry" />
        </mxCell>
        <mxCell id="R-l8zvWdW9V4DUYvu0jo-3" style="edgeStyle=orthogonalEdgeStyle;rounded=0;orthogonalLoop=1;jettySize=auto;html=1;exitX=0;exitY=0.5;exitDx=0;exitDy=0;entryX=1;entryY=0.5;entryDx=0;entryDy=0;" parent="1" source="erSds1CLaswU4poHBw7s-26" target="erSds1CLaswU4poHBw7s-29" edge="1">
          <mxGeometry relative="1" as="geometry">
            <Array as="points">
              <mxPoint x="615" y="346" />
              <mxPoint x="615" y="415" />
            </Array>
          </mxGeometry>
        </mxCell>
        <mxCell id="R-l8zvWdW9V4DUYvu0jo-4" style="edgeStyle=orthogonalEdgeStyle;rounded=0;orthogonalLoop=1;jettySize=auto;html=1;entryX=1;entryY=0.5;entryDx=0;entryDy=0;" parent="1" source="erSds1CLaswU4poHBw7s-34" target="erSds1CLaswU4poHBw7s-29" edge="1">
          <mxGeometry relative="1" as="geometry" />
        </mxCell>
        <mxCell id="aE0YGw491w5LCq3fXEEt-1" value="Product" style="text;html=1;strokeColor=#b85450;fillColor=#f8cecc;align=center;verticalAlign=middle;whiteSpace=wrap;overflow=hidden;fontStyle=1;strokeWidth=1;fontSize=20;" vertex="1" parent="1">
          <mxGeometry x="280" y="210" width="230" height="30" as="geometry" />
        </mxCell>
        <mxCell id="aE0YGw491w5LCq3fXEEt-3" value="Product" style="text;html=1;strokeColor=#b85450;fillColor=#f8cecc;align=center;verticalAlign=middle;whiteSpace=wrap;overflow=hidden;fontStyle=1;strokeWidth=1;fontSize=20;" vertex="1" parent="1">
          <mxGeometry x="720" y="220" width="230" height="30" as="geometry" />
        </mxCell>
        <mxCell id="aE0YGw491w5LCq3fXEEt-4" value="Customer" style="text;html=1;strokeColor=#82b366;fillColor=#d5e8d4;align=center;verticalAlign=middle;whiteSpace=wrap;overflow=hidden;fontStyle=1;strokeWidth=1;fontSize=20;" vertex="1" parent="1">
          <mxGeometry x="280" y="430" width="230" height="30" as="geometry" />
        </mxCell>
        <mxCell id="aE0YGw491w5LCq3fXEEt-5" value="Customer" style="text;html=1;strokeColor=#82b366;fillColor=#d5e8d4;align=center;verticalAlign=middle;whiteSpace=wrap;overflow=hidden;fontStyle=1;strokeWidth=1;fontSize=20;" vertex="1" parent="1">
          <mxGeometry x="720" y="360" width="230" height="30" as="geometry" />
        </mxCell>
        <mxCell id="aE0YGw491w5LCq3fXEEt-6" value="Customer" style="text;html=1;strokeColor=#82b366;fillColor=#d5e8d4;align=center;verticalAlign=middle;whiteSpace=wrap;overflow=hidden;fontStyle=1;strokeWidth=1;fontSize=20;" vertex="1" parent="1">
          <mxGeometry x="720" y="490" width="230" height="30" as="geometry" />
        </mxCell>
        <mxCell id="aE0YGw491w5LCq3fXEEt-7" value="Sales" style="text;html=1;strokeColor=#9673a6;fillColor=#e1d5e7;align=center;verticalAlign=middle;whiteSpace=wrap;overflow=hidden;fontStyle=1;strokeWidth=1;fontSize=20;" vertex="1" parent="1">
          <mxGeometry x="-80" y="327.27" width="270" height="30" as="geometry" />
        </mxCell>
      </root>
    </mxGraphModel>
  </diagram>
</mxfile>
